<?xml version="1.0" encoding="utf-8"?>
<!-- Generator: Adobe Illustrator 23.0.5, SVG Export Plug-In . SVG Version: 6.00 Build 0)  -->
<svg version="1.1" id="Layer_1" xmlns="http://www.w3.org/2000/svg" xmlns:xlink="http://www.w3.org/1999/xlink" x="0px" y="0px"
	 viewBox="0 0 300 90" style="enable-background:new 0 0 300 90;" xml:space="preserve">
<style type="text/css">
	.st0{fill:none;stroke:#FFFFFF;stroke-width:7.4727;stroke-miterlimit:10;}
	.st1{fill:#558AFF;}
	.st2{fill:#FFFFFF;}
</style>
<g>
	<path class="st0" d="M275.6,82.6H24.4c-11.5,0-20.9-9.3-20.9-20.9V28.3c0-11.5,9.3-20.9,20.9-20.9h251.2c11.5,0,20.9,9.3,20.9,20.9
		v33.4C296.4,73.2,287.1,82.6,275.6,82.6z"/>
	<path class="st1" d="M275.6,82.6H24.4c-11.5,0-20.9-9.3-20.9-20.9V28.3c0-11.5,9.3-20.9,20.9-20.9h251.2c11.5,0,20.9,9.3,20.9,20.9
		v33.4C296.4,73.2,287.1,82.6,275.6,82.6z"/>
	<g>
		<g>
			<path class="st2" d="M80.3,33.1c2.1,0,3.8,0.5,4.9,1.4c1.1,0.9,1.7,2.1,1.7,3.5c0,1.7-0.7,3.1-2.2,4.2c1.1,0.4,1.9,1,2.5,1.8
				c0.6,0.8,0.9,1.8,0.9,3.1c0,1.7-0.7,3-2.1,4.1c-1.4,1.1-3.2,1.6-5.5,1.6h-1.7c-2.7,0-4.1-1.5-4.1-4.5v-6.2c0-2.2,0-3.9-0.1-5.1
				c0-1.2-0.1-2-0.1-2.4c0-0.2,0.1-0.4,0.3-0.5C76.8,33.4,78.6,33.1,80.3,33.1z M80.8,41.1c0.8,0,1.5-0.2,1.9-0.7
				c0.5-0.5,0.7-1.1,0.7-1.8c0-0.7-0.2-1.4-0.7-1.9c-0.5-0.5-1.3-0.8-2.3-0.8c-0.9,0-1.7,0.1-2.3,0.3c0.1,1.6,0.1,3.2,0.1,4.8H80.8z
				 M81.2,50c1,0,1.8-0.3,2.4-0.8c0.6-0.5,0.9-1.3,0.9-2.2c0-0.9-0.3-1.7-1-2.2c-0.7-0.6-1.8-0.8-3.4-0.8h-1.9v3.5
				c0,1.7,0.8,2.6,2.5,2.6H81.2z"/>
			<path class="st2" d="M91.1,43.5c0-0.5,0-1-0.1-1.4c-0.1-0.4-0.2-0.8-0.4-1.1c0.5-0.5,1.2-0.8,2.1-0.8c1.3,0,1.9,0.6,1.9,1.8V47
				c0,1.2,0.2,2.1,0.7,2.6c0.4,0.6,1,0.9,1.8,0.9c0.8,0,1.8-0.3,2.8-0.9v-6c0-0.5,0-1-0.1-1.4c-0.1-0.4-0.2-0.8-0.4-1.1
				c0.5-0.5,1.2-0.8,2.1-0.8c1.3,0,1.9,0.6,1.9,1.8v7.2c0,0.9,0.3,2,0.8,3.4c-0.7,0.5-1.4,0.7-2.2,0.7c-1.1,0-1.7-0.7-1.8-2
				c-1.3,1.2-2.7,1.7-4.2,1.7c-1.3,0-2.4-0.4-3.3-1.2c-0.9-0.8-1.3-1.9-1.3-3.4V43.5z"/>
			<path class="st2" d="M115.9,51.1c-1.3,1.3-2.8,1.9-4.3,1.9c-1.4,0-2.5-0.4-3.3-1.2c-0.9-0.8-1.3-1.9-1.3-3.4v-5
				c0-1.1-0.2-2-0.5-2.5c0.5-0.4,1.2-0.6,2.1-0.6c1.2,0,1.8,0.6,1.8,1.8v5c0,1.1,0.2,1.9,0.6,2.5c0.4,0.6,1.1,0.9,2,0.9
				c1.2,0,2.2-0.5,3-1.5v-5.7c0-1.1-0.2-2-0.5-2.5c0.5-0.4,1.3-0.6,2.2-0.6c1.2,0,1.8,0.6,1.8,1.8V54c0,4.2-2.3,6.3-6.8,6.3
				c-1.9,0-3.4-0.4-4.5-1.1c-1.2-0.7-1.7-1.5-1.7-2.4c0-0.9,0.5-1.6,1.6-2.1c1.1,2,2.6,3,4.5,3c2.3,0,3.5-1.2,3.5-3.5V51.1z"/>
			<path class="st2" d="M153.5,52.4c0,0.2-0.1,0.4-0.3,0.5c-0.2,0.1-0.6,0.2-1.3,0.2c-0.9,0-1.5-0.1-1.7-0.2
				c-0.2-0.1-0.3-0.3-0.3-0.5c0-4.6-0.4-9.3-1.1-14c-1.9,3.3-3.8,7.7-5.5,13c-0.1,0.3-0.3,0.5-0.7,0.5h-1c-0.4,0-0.6-0.2-0.7-0.5
				c-1.3-5-3.1-9.3-5.4-12.9c-0.5,4.7-0.7,9.4-0.7,13.9c0,0.2-0.1,0.4-0.3,0.5c-0.2,0.1-0.7,0.2-1.6,0.2c-0.6,0-1-0.1-1.2-0.2
				c-0.2-0.1-0.3-0.3-0.3-0.5c0-6.2,0.5-12.6,1.6-19.1h1.9c1,0,1.7,0.3,2.1,1c2.2,3.2,4,7.1,5.3,11.8c1.2-4.1,3-8,5.2-11.8
				c0.4-0.6,1-1,1.9-1h2C152.7,39.8,153.5,46.2,153.5,52.4z"/>
			<path class="st2" d="M162.8,45.1h1.1c1,0,1.5-0.3,1.5-1c0-0.4-0.2-0.7-0.7-1.1c-0.5-0.3-1.1-0.5-1.9-0.5c-1.1,0-1.9,0.4-2.6,1.2
				c-0.6,0.8-1,1.8-1,3c0,1.1,0.4,2.1,1.1,2.7c0.7,0.7,1.6,1,2.7,1c0.9,0,1.7-0.2,2.6-0.7c0.2-0.1,0.5-0.2,0.7-0.2
				c0.6,0,1.2,0.4,1.7,1.3c-1.6,1.5-3.5,2.2-5.6,2.2c-1.8,0-3.3-0.5-4.5-1.6c-1.2-1.1-1.9-2.6-1.9-4.5c0-2.2,0.7-3.8,2-5.1
				c1.3-1.2,3-1.9,5-1.9c1.5,0,2.7,0.5,3.8,1.4c1,0.9,1.6,2.1,1.6,3.4c0,1.7-1,2.6-3,2.6h-4.8C160.8,45.9,161.5,45.1,162.8,45.1z"/>
			<path class="st2" d="M189.9,53.6c-0.9,0-1.4-0.7-1.5-2c-1.3,1-2.6,1.5-4,1.5c-1.5,0-2.9-0.5-4.1-1.6c-1.2-1.1-1.8-2.6-1.8-4.5
				c0-1.9,0.6-3.6,1.9-4.9c1.3-1.3,3.2-2,5.6-2c2,0,3.9,0.3,5.6,0.9v8.2c0,1.1,0.2,2.3,0.7,3.4C191.5,53.3,190.7,53.6,189.9,53.6z
				 M185.8,50.5c0.9,0,1.8-0.3,2.5-0.9v-6.6c-0.9-0.4-1.8-0.6-2.8-0.6c-2.1,0-3.2,1.3-3.2,3.9c0,1.4,0.3,2.5,1,3.2
				C184,50.2,184.8,50.5,185.8,50.5z"/>
			<path class="st2" d="M212.9,53c-3.2,0-5.7-0.9-7.5-2.7c-1.9-1.8-2.8-4.1-2.8-7c0-3.1,1-5.6,3.1-7.5c2.1-1.9,4.5-2.9,7.4-2.9
				c2.5,0,4.7,0.8,6.6,2.4c-0.9,1.4-1.7,2.2-2.6,2.2c-0.3,0-0.8-0.3-1.5-0.9c-0.7-0.6-1.7-0.9-3.2-0.9c-1.6,0-3,0.6-4.2,1.9
				c-1.1,1.3-1.7,3-1.7,5.1c0,2.3,0.6,4.1,1.9,5.5c1.3,1.4,2.9,2.1,4.8,2.1c1.5,0,2.7-0.4,3.8-1.3c0.3-0.3,0.6-0.4,0.9-0.4
				c0.8,0,1.5,0.7,2.1,2.1C218,52.3,215.6,53,212.9,53z"/>
			<path class="st2" d="M227.9,53c-2,0-3.6-0.5-4.8-1.6c-1.2-1-1.8-2.5-1.8-4.4c0-2.1,0.7-3.7,2-5c1.4-1.3,3.1-2,5.2-2
				c1.9,0,3.5,0.6,4.7,1.8c1.3,1.2,1.9,2.8,1.9,4.7c0,2.1-0.6,3.7-1.9,4.8S230.2,53,227.9,53z M228.4,50.5c1,0,1.7-0.3,2.2-0.9
				c0.5-0.6,0.7-1.5,0.7-2.6c0-1.4-0.3-2.5-1-3.3c-0.7-0.8-1.5-1.2-2.4-1.2c-1,0-1.8,0.4-2.3,1.2c-0.5,0.8-0.7,1.8-0.7,2.9
				c0,1.2,0.3,2.2,0.9,2.9C226.4,50.2,227.3,50.5,228.4,50.5z"/>
			<path class="st2" d="M249.9,40.5c0-3,0.7-5.3,2.1-6.8c1.4-1.5,3.1-2.3,5.1-2.3c1.8,0,3.3,0.5,4.2,1.4c-0.6,1.6-1.2,2.3-1.8,2.3
				c-0.4,0-0.9-0.2-1.4-0.6c-0.5-0.4-1.1-0.6-1.8-0.6c-2,0-3.1,1.7-3.1,5v1.6l4.7-0.1c-0.1,1.5-0.9,2.2-2.4,2.2l-2.3,0v10.8
				c0,1.9-1.2,3.2-3.6,3.9c0.2-2.5,0.3-4.9,0.3-7.4v-7.4l-7,0V54c0,1.9-1.2,3.2-3.6,3.9c0.2-2.5,0.3-4.9,0.3-7.4v-8h-2.4
				c0.1-1.3,0.9-2,2.4-2c0-2.9,0.7-5.1,2.1-6.6c1.4-1.5,3.1-2.3,5.1-2.3c1.8,0,3.3,0.5,4.2,1.4c-0.6,1.6-1.2,2.3-1.8,2.3
				c-0.4,0-0.9-0.2-1.4-0.6c-0.5-0.4-1.1-0.6-1.8-0.6c-2,0-3.1,1.7-3.1,5v1.3L249.9,40.5z"/>
			<path class="st2" d="M266.3,45.1h1.1c1,0,1.5-0.3,1.5-1c0-0.4-0.2-0.7-0.7-1.1c-0.5-0.3-1.1-0.5-1.9-0.5c-1.1,0-1.9,0.4-2.6,1.2
				c-0.6,0.8-1,1.8-1,3c0,1.1,0.4,2.1,1.1,2.7c0.7,0.7,1.6,1,2.7,1c0.9,0,1.7-0.2,2.6-0.7c0.2-0.1,0.5-0.2,0.7-0.2
				c0.6,0,1.2,0.4,1.7,1.3c-1.6,1.5-3.5,2.2-5.6,2.2c-1.8,0-3.3-0.5-4.5-1.6c-1.2-1.1-1.9-2.6-1.9-4.5c0-2.2,0.7-3.8,2-5.1
				c1.3-1.2,3-1.9,5-1.9c1.5,0,2.7,0.5,3.8,1.4c1,0.9,1.6,2.1,1.6,3.4c0,1.7-1,2.6-3,2.6h-4.8C264.3,45.9,265,45.1,266.3,45.1z"/>
			<path class="st2" d="M280.7,45.1h1.1c1,0,1.5-0.3,1.5-1c0-0.4-0.2-0.7-0.7-1.1c-0.5-0.3-1.1-0.5-1.9-0.5c-1.1,0-1.9,0.4-2.6,1.2
				c-0.6,0.8-1,1.8-1,3c0,1.1,0.4,2.1,1.1,2.7c0.7,0.7,1.6,1,2.7,1c0.9,0,1.7-0.2,2.6-0.7c0.2-0.1,0.5-0.2,0.7-0.2
				c0.6,0,1.2,0.4,1.7,1.3c-1.6,1.5-3.5,2.2-5.6,2.2c-1.8,0-3.3-0.5-4.5-1.6s-1.9-2.6-1.9-4.5c0-2.2,0.7-3.8,2-5.1
				c1.3-1.2,3-1.9,5-1.9c1.5,0,2.7,0.5,3.8,1.4c1,0.9,1.6,2.1,1.6,3.4c0,1.7-1,2.6-3,2.6h-4.8C278.8,45.9,279.5,45.1,280.7,45.1z"/>
		</g>
		
			<image style="overflow:visible;" width="161" height="130" xlink:href="ezgif-1c868569e23546.png"  transform="matrix(0.307 0 0 0.307 16.54 25.048)">
		</image>
	</g>
</g>
</svg>
